<svg width="775" height="652" viewBox="0 0 775 652" fill="none" xmlns="http://www.w3.org/2000/svg">
<path d="M194.301 256.982H739.793C759.239 256.982 775 237.671 775 213.846C775 190.022 759.239 170.711 739.793 170.711H194.301C174.855 170.711 159.094 190.022 159.094 213.846C159.094 237.671 174.855 256.982 194.301 256.982Z" fill="#FFC20E"/>
<path d="M305.105 516.03H662.364C681.809 516.03 697.571 496.719 697.571 472.894C697.571 449.07 681.809 429.759 662.364 429.759H305.105C285.659 429.759 269.898 449.07 269.898 472.894C269.898 496.719 285.659 516.03 305.105 516.03Z" fill="#ED1C24"/>
<path d="M254.151 382.834H702.258C721.703 382.834 737.465 363.523 737.465 339.699C737.465 315.874 721.703 296.563 702.258 296.563H254.151C234.706 296.563 218.944 315.874 218.944 339.699C218.944 363.523 234.706 382.834 254.151 382.834Z" fill="#F7941D"/>
<path d="M188.37 256.37L697.571 381.903C716.736 385.922 734.933 370.141 738.21 346.66C741.491 323.179 728.61 300.884 709.445 296.87L200.244 171.337C181.078 167.318 162.881 183.099 159.605 206.579C156.324 230.06 169.204 252.355 188.37 256.37Z" fill="#FFCF01"/>
<path d="M248.397 382.223L658.426 515.098C677.591 519.117 695.788 503.336 699.065 479.855C702.346 456.374 689.465 434.079 670.3 430.065L260.271 297.19C241.106 293.17 222.908 308.951 219.632 332.432C216.351 355.913 229.232 378.203 248.397 382.223Z" fill="#F7941D"/>
<path fill-rule="evenodd" clip-rule="evenodd" d="M169.827 65.2278H26.6867C11.9472 65.2278 0 50.6236 0 32.6139C0 14.6006 11.9472 0 26.6867 0H196.611C205.924 0 214.123 5.82903 218.897 14.6649C219.565 15.6986 220.209 16.7914 220.828 17.9431L256.606 86.0169C275.548 119.719 272.155 139.59 259.943 150.233C249.4 159.422 223.983 165.191 211.533 150.233L175.755 82.1596C173.014 77.0576 171.043 71.2881 169.827 65.2278Z" fill="black"/>
<path d="M388.892 651.626C420.009 651.626 445.235 626.4 445.235 595.281C445.235 564.163 420.009 538.936 388.892 538.936C357.774 538.936 332.549 564.163 332.549 595.281C332.549 626.4 357.774 651.626 388.892 651.626Z" fill="black"/>
<path d="M584.623 651.626C615.741 651.626 640.967 626.4 640.967 595.281C640.967 564.163 615.741 538.936 584.623 538.936C553.506 538.936 528.28 564.163 528.28 595.281C528.28 626.4 553.506 651.626 584.623 651.626Z" fill="black"/>
</svg>
